<?xml version="1.0" encoding="utf-8"?>
<!-- Generator: Adobe Illustrator 22.0.0, SVG Export Plug-In . SVG Version: 6.00 Build 0)  -->
<svg version="1.1" id="Слой_1" xmlns="http://www.w3.org/2000/svg" xmlns:xlink="http://www.w3.org/1999/xlink" x="0px" y="0px"
	 viewBox="0 0 107 103" style="enable-background:new 0 0 107 103;" xml:space="preserve">
<style type="text/css">
	.st0{fill:none;stroke:#CFA000;}
	.st1{fill:#D0A000;}
</style>
<path class="st0" d="M2.3,46.5L24,6.1c1.7-3.3,5.1-5.2,8.7-5.1l42.1,0.1c3.6,0,6.9,2.1,8.6,5.2L104.8,47c1.6,2.9,1.6,6.5,0,9.4
	l-22,40.4c-1.7,3.3-5.1,5.2-8.7,5.1l-42.1,0c-3.6,0-6.9-2.1-8.6-5.2L2.2,55.9C0.6,53,0.6,49.4,2.3,46.5z"/>
<path class="st1" d="M61.1,36.1c0,0,9.9,6.7,14.1,14.1c6.7,11.8,0,21-20.7,21l0,0c-20.7,0-27.4-9.2-20.7-21
	c4.2-7.4,14.1-14.1,14.1-14.1S53.6,37.5,61.1,36.1z"/>
<path class="st1" d="M61,35.7c-6.6,1.4-12.9,0-12.9,0C48,35.3,48,35,48,34.6c5.9,0.9,10.5,0.4,13.1,0C61,35.2,61,35.7,61,35.7z"/>
<path class="st1" d="M65.1,28c-3,2-3.7,4.7-4,6.1c-5.9,1.1-11.2,0.3-13.2,0.1c-2.6-5.4-6.9-5.4-5.4-7.3c1.6-1.9,4.3-0.1,5.1-0.4
	c1.1-0.4,1.8-1.8,3.3-1.8c2.2,0,2.6,2.4,4.5,1c1.5-1.2,2.5-1.8,3.9-1c0.9,0.5,1.5,1.9,1.9,1.7C63.7,25.4,67.4,26.5,65.1,28z"/>
<path d="M57.4,42.9c-1.4,0-8.4,0-8.4,0v9.4h-3.5V55h3.6v2h-3.6v2.4h3.6V63h3.3v-3.4h7.5v-2.5h-7.6v-2h5c0,0,5.8-0.2,6.3-5.6
	S58.9,42.9,57.4,42.9z M57.3,52.2h-4.9v-6.3c0,0,4,0,4.6,0c0.7,0,3.2,0.3,3.3,3.1C60.4,51.8,57.3,52.2,57.3,52.2z"/>
</svg>
