<?xml version="1.0" encoding="utf-8"?>
<!-- Generator: Adobe Illustrator 22.0.0, SVG Export Plug-In . SVG Version: 6.00 Build 0)  -->
<svg version="1.1" id="Слой_1" xmlns="http://www.w3.org/2000/svg" xmlns:xlink="http://www.w3.org/1999/xlink" x="0px" y="0px"
	 viewBox="0 0 107 103" style="enable-background:new 0 0 107 103;" xml:space="preserve">
<style type="text/css">
	.st0{fill:none;stroke:#CFA000;}
	.st1{fill:#CFA000;}
	.st2{fill:none;stroke:#CFA000;stroke-width:2;stroke-miterlimit:10;}
</style>
<path class="st0" d="M2.3,46.5L24,6.1c1.7-3.3,5.1-5.2,8.7-5.1l42.1,0.1c3.6,0,6.9,2.1,8.6,5.2L104.8,47c1.6,2.9,1.6,6.5,0,9.4
	l-22,40.4c-1.7,3.3-5.1,5.2-8.7,5.1l-42.1,0c-3.6,0-6.9-2.1-8.6-5.2L2.2,55.9C0.6,53,0.6,49.4,2.3,46.5z"/>
<path class="st1" d="M71,41.1l0.3-0.1c1.2,0.3,1.5-0.2,1.5-0.2s0.3-1-0.9-1c-1.1,0-0.9,0.8-0.9,0.8l-0.4,0.2c0,0-0.4-1.4-0.6-1.8
	c-1-1.6-5.6-1.6-5.8-1.6c-0.1,0-4.6-0.1-5.7,1.6c-0.3,0.4-0.6,1.8-0.6,1.8l-0.5-0.2c0,0,0.2-0.8-0.9-0.8c-1.1,0-0.9,1-0.9,1
	s0.3,0.5,1.5,0.2l0.3,0.1c0,0-1.7,0.8-1.7,1.8v3.5c0,0,0,1,1.4,1s7.1,0,7.1,0s5.8,0,7.1,0c1.4,0,1.4-1,1.4-1v-3.5
	C72.7,41.9,71,41.1,71,41.1z M60.4,38.5c0.9-0.3,1.5-0.5,3.8-0.5c1.9,0,2.7,0.1,3.6,0.4c1.9,0.6,2.3,2.5,1.8,2.5H58.9
	C58.4,40.8,59.1,39,60.4,38.5z M59.4,44c-0.1,0.4-0.9,0.5-1.7,0.3s-1.4-0.8-1.2-1.2c0.1-0.4,0.9-0.5,1.7-0.3
	C58.9,43.1,59.4,43.6,59.4,44z M67.7,46.4L67.7,46.4h-7.1c-0.1,0-0.1-0.1-0.1-0.1v-0.1h0.1h7C67.7,46.2,67.7,46.2,67.7,46.4
	C67.7,46.3,67.7,46.4,67.7,46.4z M67.6,44.4c-0.2,0.2-0.4,0.3-0.6,0.3h-5.6c-0.5,0-0.9-0.4-0.9-0.9c0-0.2,0.1-0.5,0.3-0.6
	c0.2-0.2,0.4-0.3,0.6-0.3H67c0.5,0,0.9,0.4,0.9,0.9C67.7,44,67.7,44.3,67.6,44.4z M70.7,45.9c-0.4,0-0.7-0.1-0.7-0.3
	c0-0.1,0.3-0.3,0.7-0.3c0.4,0,0.7,0.1,0.7,0.3C71.5,45.8,71.1,45.9,70.7,45.9z M70.8,44.3c-0.8,0.3-1.6,0.1-1.7-0.3
	c-0.1-0.4,0.4-0.9,1.2-1.2c0.8-0.3,1.6-0.1,1.7,0.3C72.2,43.5,71.6,44,70.8,44.3z"/>
<path class="st1" d="M56.7,47.2c0,0,0.1,1.3,1.6,1.3c0.7,0,1.2-0.2,1.4-1.1"/>
<path d="M58.2,46.1c0.3,0,0.6-0.1,0.6-0.2c0-0.1-0.2-0.2-0.5-0.2s-0.6,0.1-0.6,0.2C57.6,46,57.9,46.1,58.2,46.1z"/>
<path class="st2" d="M64.7,59.3c8.8,0,16-7.1,16-15.9s-7.2-15.9-16-15.9s-16,7.1-16,15.9S55.9,59.3,64.7,59.3z"/>
<path class="st1" d="M32.1,75.8l17.7-14.7c1.5-1.2,1.7-3.5,0.4-5c-1.3-1.6-3.5-1.8-5-0.6L26.5,69.4C25.4,72,29.4,76.6,32.1,75.8z"/>
<path d="M36.2,72.5l1.1-0.9c-3-0.7-5.3-3.7-5.4-6.4l-1.2,0.9C30,68.4,34.2,73,36.2,72.5z"/>
<path d="M34.4,73.9l0.6-0.6c-3.6-1.8-4.7-3.4-5.2-6.4L29,67.5C29,70.6,31.9,73.3,34.4,73.9z"/>
<path class="st1" d="M46.2,55.9l2.8,3.4l4.6-3.7l-2.8-3.4L46.2,55.9z"/>
<path class="st1" d="M55.7,35.4c0.5-1,1.2-1.8,2.1-2.5c0.9-0.7,1.9-1.3,3-1.7c1.1-0.4,2.3-0.7,3.4-0.7c0.6-0.1,1.2,0,1.8,0
	s1.2,0.1,1.7,0.2c-0.6,0.1-1.2,0.1-1.7,0.2L65.1,31h-0.4c-0.1,0-0.3,0-0.4,0.1c-0.3,0-0.6,0.1-0.8,0.2c-0.3,0-0.5,0.1-0.8,0.2
	c-0.6,0.1-1.1,0.3-1.6,0.5c-1,0.4-2,0.8-2.9,1.4C57.4,34,56.6,34.6,55.7,35.4z"/>
</svg>
