<?xml version="1.0" encoding="utf-8"?>
<!-- Generator: Adobe Illustrator 22.0.0, SVG Export Plug-In . SVG Version: 6.00 Build 0)  -->
<svg version="1.1" id="Слой_1" xmlns="http://www.w3.org/2000/svg" xmlns:xlink="http://www.w3.org/1999/xlink" x="0px" y="0px"
	 viewBox="0 0 107 103" style="enable-background:new 0 0 107 103;" xml:space="preserve">
<style type="text/css">
	.st0{fill:none;stroke:#CFA000;}
	.st1{fill:none;stroke:#CFA000;stroke-width:3;stroke-miterlimit:10;}
	.st2{fill:#CFA000;}
	.st3{fill:#101112;}
</style>
<path class="st0" d="M2.3,46.5L24,6.1c1.7-3.3,5.1-5.2,8.7-5.1l42.1,0.1c3.6,0,6.9,2.1,8.6,5.2L104.8,47c1.6,2.9,1.6,6.5,0,9.4
	l-22,40.4c-1.7,3.3-5.1,5.2-8.7,5.1l-42.1,0c-3.6,0-6.9-2.1-8.6-5.2L2.2,55.9C0.6,53,0.6,49.4,2.3,46.5z"/>
<g>
	<path class="st1" d="M73.2,52.5H32.9c-1.3,0-2.3-1-2.3-2.3V29c0-1.3,1-2.3,2.3-2.3h40.4c1.3,0,2.3,1,2.3,2.3v21.3
		C75.5,51.5,74.5,52.5,73.2,52.5z"/>
	<path class="st2" d="M82.2,67.3H24.9c-0.5,0-0.9-0.4-0.9-1v-2.8c0.1-0.4,3.6-8.5,6.8-8.5h44.6c3.6,0,7.8,8.5,7.8,8.5v2.8
		C83.2,66.8,82.7,67.3,82.2,67.3z"/>
	<path d="M58,55.8h-8.9v0.5H58V55.8z"/>
	<path d="M83.2,64.6H23.8v-1.1h59.4V64.6z"/>
	<path class="st2" d="M60.7,38.2l0.3-0.1c1.4,0.3,1.7-0.3,1.7-0.3s0.3-1.2-1-1.2s-1.1,1-1.1,1l-0.4,0.3c0,0-0.4-1.7-0.7-2.2
		c-1.1-2-6.5-2-6.7-2s-5.4,0-6.6,2c-0.3,0.5-0.7,2.2-0.7,2.2l-0.4-0.3c0,0,0.2-1-1.1-1s-1,1.2-1,1.2s0.3,0.6,1.7,0.3l0.3,0.1
		c0,0-2,1-2,2.2v4.3c0,0,0,1.2,1.6,1.2s8.3,0,8.3,0s6.7,0,8.3,0s1.6-1.2,1.6-1.2v-4.3C62.7,39,60.7,38.2,60.7,38.2z M48.5,34.8
		c1-0.4,1.8-0.6,4.4-0.6c2.2,0,3.2,0.2,4.2,0.5c2.2,0.8,2.7,3.1,2.1,3.1H46.7C46,37.8,46.9,35.4,48.5,34.8z M47.2,41.7
		c-0.2,0.5-1,0.6-2,0.3s-1.6-1-1.4-1.5s1-0.6,2-0.3C46.7,40.4,47.3,41.2,47.2,41.7z M56.9,44.5C56.8,44.7,56.8,44.7,56.9,44.5h-8.2
		c-0.1,0-0.2-0.1-0.2-0.2v-0.1c0,0,0,0,0.1,0h8.1C56.8,44.3,56.9,44.4,56.9,44.5L56.9,44.5z M56.7,42.2c-0.2,0.2-0.5,0.3-0.8,0.3
		h-6.4c-0.6,0-1.1-0.5-1.1-1.1c0-0.3,0.1-0.6,0.3-0.8s0.5-0.3,0.8-0.3H56c0.6,0,1.1,0.5,1.1,1.1C57,41.7,56.9,41.9,56.7,42.2z
		 M60.4,44c-0.5,0-0.8-0.2-0.8-0.3c0-0.2,0.4-0.3,0.8-0.3c0.5,0,0.8,0.2,0.8,0.3C61.2,43.9,60.8,44,60.4,44z M60.5,41.9
		c-0.9,0.3-1.8,0.2-2-0.3s0.5-1.1,1.4-1.5c0.9-0.3,1.8-0.2,2,0.3C62,41,61.4,41.7,60.5,41.9z"/>
	<path class="st2" d="M43.6,45.3c0,0,0,1.8,2,1.8c0.9,0,1.6-0.2,2-1.4"/>
	<path class="st2" d="M62,45.3c0,0,0,1.8-2,1.8c-0.9,0-1.6-0.2-2-1.4"/>
	<path class="st3" d="M45.1,43.8c0.4,0,0.8-0.2,0.8-0.4S45.5,43,45.1,43s-0.8,0.2-0.8,0.4C44.3,43.7,44.7,43.8,45.1,43.8z"/>
</g>
</svg>
