<?xml version="1.0" encoding="utf-8"?>
<!-- Generator: Adobe Illustrator 22.0.0, SVG Export Plug-In . SVG Version: 6.00 Build 0)  -->
<svg version="1.1" id="Слой_1" xmlns="http://www.w3.org/2000/svg" xmlns:xlink="http://www.w3.org/1999/xlink" x="0px" y="0px"
	 viewBox="0 0 107 103" style="enable-background:new 0 0 107 103;" xml:space="preserve">
<style type="text/css">
	.st0{fill:none;stroke:#CFA000;}
	.st1{fill:none;stroke:#CFA000;stroke-width:3;stroke-linecap:round;stroke-linejoin:round;stroke-miterlimit:10;}
	.st2{fill:#CFA000;}
</style>
<path class="st0" d="M2.3,46.5L24,6.1c1.7-3.3,5.1-5.2,8.7-5.1l42.1,0.1c3.6,0,6.9,2.1,8.6,5.2L104.8,47c1.6,2.9,1.6,6.5,0,9.4
	l-22,40.4c-1.7,3.3-5.1,5.2-8.7,5.1l-42.1,0c-3.6,0-6.9-2.1-8.6-5.2L2.2,55.9C0.6,53,0.6,49.4,2.3,46.5z"/>
<path class="st1" d="M46.6,50.5l6.6,5.9l8.5-11.3"/>
<path class="st2" d="M79.5,57.1l-0.4,1.4c-2.4,1-4.3,0.5-4.8,0.4c-0.2,0.4-0.3,0.8-0.5,1.1c2.3,1.3,3.3,3.2,3.3,3.2l-0.7,1.4
	c-2.5,0.3-4.2-0.6-4.8-0.9c-0.2,0.3-0.5,0.7-0.8,1c1.8,1.8,2.3,3.9,2.3,3.9L72,69.7c-2.4-0.3-3.8-1.5-4.3-2c-0.3,0.3-0.6,0.6-1,0.8
	c1.2,2.2,1.1,4.4,1.1,4.4l-1.3,0.8c-2.1-0.9-3.2-2.3-3.6-3c-0.4,0.2-0.8,0.4-1.2,0.5c0.6,2.4-0.1,4.4-0.1,4.4l-1.5,0.5
	c-1.7-1.4-2.4-2.9-2.6-3.6c-0.5,0.1-1,0.2-1.5,0.2c-0.1,2.5-1.5,4.4-1.5,4.4h-2l0.8-8.3c9.7,0,17.6-7.9,17.6-17.6S63,33.7,53.3,33.7
	v-3.1v-4.7h0.8c1.2,1.7,1.4,3.3,1.4,4.1c0.6,0,0.9,0.1,1.5,0.2c0.7-2.2,2.3-3.6,2.3-3.6l1.5,0.4c0.8,1.9,0.6,3.5,0.5,4.3
	c0.5,0.2,1,0.5,1.4,0.6c1.3-2,3.1-3,3.1-3l1.4,0.7c0.3,2.2-0.4,3.8-0.7,4.5c0.3,0.3,0.7,0.5,1.1,0.8c1.8-1.7,3.9-2.2,3.9-2.2l1.1,1
	c-0.3,2.3-1.5,3.7-2,4.2c0.3,0.3,0.6,0.6,0.8,1.1c2.2-1.2,4.4-1.1,4.4-1.1l0.8,1.3c-1,2.3-2.5,3.3-3.1,3.6c0.2,0.4,0.3,0.8,0.5,1.2
	c2.6-0.6,4.7,0,4.7,0l0.5,1.5c-1.6,2-3.4,2.6-3.9,2.7c0.1,0.4,0.2,0.8,0.2,1.2c2.6,0,4.5,1.2,4.5,1.2l0.1,1.5
	c-2.1,1.5-4.1,1.6-4.6,1.6c0,0.4-0.1,0.8-0.2,1.2C77.9,55.4,79.5,57.1,79.5,57.1z"/>
<path class="st2" d="M27.9,57.2l0.3,1.5c2.4,0.9,4.3,0.5,4.8,0.4c0.2,0.4,0.3,0.8,0.5,1.1c-2.2,1.3-3.3,3.2-3.3,3.2l0.7,1.4
	c2.5,0.3,4.2-0.6,4.7-0.9c0.2,0.3,0.5,0.7,0.8,1c-1.8,1.8-2.3,3.9-2.3,3.9l1,1.1c2.4-0.3,3.8-1.6,4.2-2c0.3,0.3,0.6,0.6,1,0.8
	c-1.2,2.2-1.1,4.3-1.1,4.3l1.3,0.8c2.1-0.9,3.1-2.3,3.5-3c0.4,0.2,0.8,0.4,1.2,0.5c-0.5,2.4,0.1,4.4,0.1,4.4l1.5,0.5
	c1.7-1.4,2.4-2.9,2.6-3.6c0.5,0.1,1,0.2,1.5,0.2c0.1,2.5,1.5,4.3,1.5,4.3h1.4l-0.3-8.3c-9.6,0-17.4-7.8-17.5-17.5
	c0.1-9.6,7.9-17.6,17.5-17.6v-3v-4.8h-0.8c-1.2,1.7-1.4,3.4-1.4,4.2c-0.6,0-0.8,0-1.4,0.1c-0.5-2.3-2.4-3.6-2.4-3.6L46,27
	c-0.8,1.9-0.6,3.5-0.5,4.3c-0.5,0.2-1,0.5-1.4,0.6c-1.3-2-3-3-3-3l-1.3,0.6c-0.3,2.2,0.4,3.8,0.7,4.5c-0.3,0.3-0.7,0.5-1.1,0.8
	c-1.8-1.7-3.8-2.1-3.8-2.1l-1.1,1c0.3,2.3,1.5,3.7,2,4.2c-0.3,0.3-0.5,0.6-0.8,1.1c-2.2-1.2-4.4-1.1-4.4-1.1l-0.8,1.3
	c1,2.2,2.5,3.3,3.1,3.6c-0.2,0.4-0.3,0.8-0.5,1.2c-2.5-0.6-4.7,0-4.7,0l-0.5,1.4c1.6,2,3.4,2.6,3.9,2.7c-0.1,0.4-0.2,0.8-0.2,1.2
	c-2.6,0-4.5,1.2-4.5,1.2L27,52c2.1,1.5,4,1.6,4.5,1.6c0,0.4,0.1,0.8,0.2,1.2C29.5,55.5,27.9,57.2,27.9,57.2z"/>
</svg>
