<svg width="77" height="76" viewBox="0 0 77 76" fill="none" xmlns="http://www.w3.org/2000/svg">
<path d="M37.423 8.9672L37.3897 2.54541L38.4678 2.53982C40.0737 4.87526 40.413 7.02978 40.4189 8.15477C41.2628 8.19726 41.6852 8.28882 42.4828 8.42531C43.4516 5.42024 45.6445 3.44008 45.6445 3.44008L47.7101 4.03875C48.8487 6.65787 48.6253 8.76844 48.4436 9.89439C49.0542 10.1256 49.7593 10.4969 50.323 10.7284C52.043 7.95381 54.4736 6.62868 54.4736 6.62868L56.3535 7.55644C56.744 10.5545 55.8649 12.7622 55.4007 13.6552C55.8714 14.0278 56.3887 14.3532 56.8594 14.7258C59.285 12.4163 62.094 11.7455 62.094 11.7455L63.6479 13.0968C63.2424 16.2396 61.6586 18.1697 61.006 18.8762C61.3835 19.343 61.7606 19.7629 62.0914 20.2768C65.0829 18.6207 68.0833 18.6988 68.0833 18.6988L69.2173 20.4274C67.9206 23.481 65.8188 24.945 65.0244 25.4179C65.2614 25.9323 65.4985 26.4467 65.6889 27.0083C69.153 26.0996 72.0638 26.9752 72.0638 26.9752L72.7303 28.9405C70.5882 31.6704 68.108 32.4801 67.359 32.6715C67.4556 33.2335 67.5523 33.7955 67.6021 34.3578C71.1645 34.3393 73.7511 35.9665 73.7511 35.9665L73.8556 38.0285C71.0541 40.1525 68.3358 40.2603 67.6325 40.2171C67.5885 40.7798 67.4977 41.3428 67.4537 41.9055C70.8331 42.7318 73.001 44.9705 73.001 44.9705L72.5427 46.9886C69.3152 48.3178 66.687 47.7221 65.9361 47.5385C65.7513 48.0551 65.5196 48.5719 65.2879 49.0888C68.3439 50.8542 69.8107 53.4716 69.8107 53.4716L68.8358 55.3048C65.4162 55.7444 63.0661 54.5379 62.3611 54.1665C62.0354 54.637 61.7097 55.1074 61.3369 55.5312C63.7872 58.0029 64.4586 60.9057 64.4586 60.9057L63.0604 62.4599C59.7767 62.0082 57.8464 60.3775 57.187 59.7716C56.7202 60.149 56.3002 60.5262 55.8332 60.8567C57.5362 63.8479 57.4107 66.7549 57.4107 66.7549L55.6353 67.8891C52.7697 66.6852 51.3066 64.7709 50.7395 63.8832C50.1782 64.1205 49.664 64.4044 49.1025 64.5948C49.8693 67.8253 48.9928 70.5486 48.9928 70.5486L46.9803 71.1684C44.6271 69.3525 43.6789 67.2949 43.3923 66.2651C42.7368 66.4091 42.0342 66.5065 41.3782 66.5568C41.2553 69.9794 39.6276 72.4722 39.6276 72.4722L37.7998 72.5286L37.423 8.9672Z" fill="#FFCE5E"/>
<path d="M9.00014 32.9274C8.90931 33.4904 8.86536 34.0532 8.77453 34.6161C8.07141 34.6198 5.40006 34.7274 2.64493 36.7574L2.74938 38.8193C2.74938 38.8193 5.33575 40.3997 8.80494 40.4754C8.85473 41.0377 8.9514 41.5997 9.00119 42.1619C8.25217 42.3533 5.77197 43.1631 3.67649 45.8459L4.29607 47.8114C4.29607 47.8114 7.15979 48.6403 10.4837 47.8262C10.6739 48.3408 10.9112 48.9021 11.1482 49.4165C10.4004 49.8423 8.34551 51.3061 7.00197 54.36L8.13595 56.0885C8.13595 56.0885 11.0426 56.1672 14.0343 54.5579C14.3649 55.0249 14.7423 55.4917 15.0729 55.9587C14.4203 56.6653 12.93 58.548 12.4307 61.6913L13.9849 63.0895C13.9849 63.0895 16.747 62.4189 19.1728 60.1563C19.6435 60.5288 20.1142 60.9014 20.5849 61.274C20.121 62.2139 19.2416 64.3747 19.5853 67.373L21.4183 68.301C21.4183 68.301 23.802 66.9761 25.5692 64.2481C26.1331 64.5265 26.8382 64.8978 27.4019 65.1293C27.22 66.2083 27.0434 68.3187 28.0417 70.9854L30.0602 71.5374C30.0602 71.5374 32.2064 69.6044 33.2221 66.5991C34.0197 66.7356 34.4418 66.7802 35.286 66.8696C35.3387 67.9944 35.6312 70.1491 37.1433 72.485L38.2214 72.4795L38.1881 66.0577L38.1085 41.6828C37.5929 41.6854 34.1696 41.4219 34.1503 37.7189C34.1401 35.7501 35.5845 34.0551 38.021 33.855L37.9384 8.91757L37.9051 2.49578L36.5457 2.50283C36.5457 2.50283 34.9649 4.99545 34.7952 8.41825C34.1394 8.5154 33.4368 8.6128 32.781 8.70995C32.4476 7.68042 31.5462 5.62257 29.2865 3.75927L27.321 4.37886C27.321 4.37886 26.4914 7.10195 27.1644 10.3329C26.6031 10.5702 26.0418 10.8075 25.5274 11.0445C25.0074 10.2034 23.5443 8.28913 20.7251 6.99125L18.9963 8.07836C18.9963 8.07836 18.9177 10.9851 20.4801 13.977C20.013 14.3075 19.5462 14.685 19.1263 15.0622C18.4669 14.4562 16.5834 12.8253 13.3464 12.3265L11.948 13.8338C11.948 13.8338 12.6193 16.7366 14.9759 19.2088C14.6031 19.6326 14.2774 20.103 13.9517 20.5735C13.2464 20.1552 10.9437 19.0422 7.57048 19.3878L6.59561 21.221C6.59561 21.221 8.0157 23.8856 11.0249 25.6512C10.7932 26.1681 10.6084 26.6846 10.3767 27.2015C9.67261 27.0176 7.0916 26.4685 3.86359 27.704L3.40531 29.7221C3.5928 29.7211 5.66695 31.9604 9.00014 32.9274ZM14.1204 35.0103C15.4228 24.0346 24.0496 15.3179 35.0109 13.8547L35.0892 28.9483C32.2819 29.9472 30.09 32.1149 29.1673 34.9791L14.1204 35.0103ZM29.0578 40.9797C29.0578 40.9797 30.3932 45.3791 35.042 46.9487L34.9792 61.9493C34.9792 61.9493 17.1121 60.4951 14.0104 40.9172L29.0578 40.9797Z" fill="#FFCE5E"/>
<path d="M39.2402 33.9426L37.4121 33.9521L37.3856 28.8428L39.2136 28.8333L39.2402 33.9426Z" fill="black"/>
<path d="M39.1343 13.552L37.3531 13.5612L37.2805 8.59277L39.1083 8.53641L39.1343 13.552Z" fill="black"/>
<path d="M39.3066 46.739L37.4785 46.7485L37.452 41.6392L39.2801 41.6297L39.3066 46.739Z" fill="black"/>
<path d="M39.1859 23.4895L37.3578 23.499L37.3313 18.3896L39.1594 18.3802L39.1859 23.4895Z" fill="black"/>
<path d="M39.4995 56.8161L37.6717 56.8725L37.6449 51.7163L39.4261 51.7071L39.4995 56.8161Z" fill="black"/>
<path d="M39.4129 67.2234L37.5848 67.2328L37.6052 62.1233L39.3864 62.114L39.4129 67.2234Z" fill="black"/>
<path d="M52.7809 14.6531L50.7653 14.6635L50.7531 12.3198L52.7218 12.3096L52.7809 14.6531Z" fill="black"/>
<path d="M63.5414 46.7542L61.526 46.8115L61.5139 44.4678L63.5292 44.4104L63.5414 46.7542Z" fill="black"/>
<path d="M59.5615 20.5242L57.5459 20.5346L57.5337 18.1909L59.5493 18.1805L59.5615 20.5242Z" fill="black"/>
<path d="M67.5778 38.717L65.5622 38.7275L65.55 36.3838L67.5657 36.3733L67.5778 38.717Z" fill="black"/>
<path d="M54.8312 48.4397L52.8159 48.497L52.8037 46.1533L54.8191 46.096L54.8312 48.4397Z" fill="black"/>
<path d="M50.5989 63.8838L48.6301 63.894L48.618 61.5503L50.5867 61.5401L50.5989 63.8838Z" fill="black"/>
<path d="M39.2268 31.3643L46.4457 31.3737L46.4781 37.608L65.5559 37.509" stroke="black" stroke-miterlimit="10"/>
<path d="M39.1725 20.9111L47.0008 20.9174L47.0373 27.9485L53.6934 27.914L53.6965 19.4763L57.54 19.4095" stroke="black" stroke-miterlimit="10"/>
<path d="M39.4864 54.285L45.205 54.2554L45.2143 56.0366L57.6828 55.9719L57.6288 45.5658L61.5197 45.5925" stroke="black" stroke-miterlimit="10"/>
<path d="M39.2932 44.1611L48.6215 44.1596L48.638 47.3471L52.8098 47.3254" stroke="black" stroke-miterlimit="10"/>
<path d="M39.3995 64.645L44.2276 64.6199L44.2178 62.745L48.9053 62.7206" stroke="black" stroke-miterlimit="10"/>
<path d="M38.8871 11.0688L44.2776 11.0409L44.2905 13.5252L50.8529 13.4912" stroke="black" stroke-miterlimit="10"/>
</svg>
