<?xml version="1.0" encoding="utf-8"?>
<!-- Generator: Adobe Illustrator 22.0.0, SVG Export Plug-In . SVG Version: 6.00 Build 0)  -->
<svg version="1.1" id="Слой_1" xmlns="http://www.w3.org/2000/svg" xmlns:xlink="http://www.w3.org/1999/xlink" x="0px" y="0px"
	 viewBox="0 0 107 103" style="enable-background:new 0 0 107 103;" xml:space="preserve">
<style type="text/css">
	.st0{fill:none;stroke:#CFA000;}
	.st1{fill:none;stroke:#CFA000;stroke-width:0.5;stroke-linecap:round;stroke-linejoin:round;stroke-miterlimit:10;}
	.st2{fill:#CFA000;}
	.st3{fill:none;stroke:#CFA000;stroke-width:0.5;stroke-miterlimit:10;}
</style>
<path class="st0" d="M2.3,46.5L24,6.1c1.7-3.3,5.1-5.2,8.7-5.1l42.1,0.1c3.6,0,6.9,2.1,8.6,5.2L104.8,47c1.6,2.9,1.6,6.5,0,9.4
	l-22,40.4c-1.7,3.3-5.1,5.2-8.7,5.1l-42.1,0c-3.6,0-6.9-2.1-8.6-5.2L2.2,55.9C0.6,53,0.6,49.4,2.3,46.5z"/>
<path class="st1" d="M46.1,50.6c0,0,7.3,8.4,15.1,0c0,0,8.7,4.5,11.3,6.3c5.7,4.2,5.1,17.6,5.1,17.6l-7.7-0.2c0,0-0.2-0.6-0.8-1.5
	c-2.3-3.4-6-4.2-10-0.7H47.6c-3.2-3.7-7.7-3.6-10.4-0.9c-1.6,1.6-1.9,3.2-1.9,3.2h-5.9c0,0-0.7-13.5,5.1-17.6
	C37.1,55.1,46.1,50.6,46.1,50.6z"/>
<path class="st2" d="M44.3,51.7v9.5H63v-9.6l4.9,2.7l-0.1,7h2.2v13.4c0,0-3.1-7.9-11-2.4H47.3C42.2,67.2,37,72,37,72V61.2l2.3-0.1
	l-0.1-6.7L44.3,51.7z"/>
<path class="st3" d="M43.5,74.1h-5.3c0,0,4.8-6.3,9.8,0h12.5c0,0,4.9-5.1,8.5,0l-4.1-0.1c0,0-0.7,1.7,0,2.2h4.1c0,0-3,5.8-8.4,0
	L48,76.4c0,0-3.7,7.1-9.7-0.2l5.2-0.1C43.4,76.3,45,75.5,43.5,74.1z"/>
<path class="st3" d="M43,37.7c0,0-0.2,3.8,1.7,5.1c0,0,1.5,9.5,9.1,9.5c2.6,0,7.4-1.6,8.3-9.4c0,0,2-1.2,2-5.4
	C64.2,37.5,53.7,30.4,43,37.7z"/>
<path class="st2" d="M42.5,37.4c0,0-1.5-13.9,11-14c9.4-0.1,11.2,7,11.1,13.8c0,0-3,2.3-4,2c-6-1.9-7.7-1.9-13.9-0.1
	C45.5,39.6,42.5,37.4,42.5,37.4z"/>
<path d="M56.6,27.6h-6.1v1.9h6.1V27.6z"/>
</svg>
