<?xml version="1.0" encoding="utf-8"?>
<!-- Generator: Adobe Illustrator 22.0.0, SVG Export Plug-In . SVG Version: 6.00 Build 0)  -->
<svg version="1.1" id="Слой_1" xmlns="http://www.w3.org/2000/svg" xmlns:xlink="http://www.w3.org/1999/xlink" x="0px" y="0px"
	 viewBox="0 0 107 103" style="enable-background:new 0 0 107 103;" xml:space="preserve">
<style type="text/css">
	.st0{fill:none;stroke:#CFA000;}
	.st1{fill:none;stroke:#CFA000;stroke-width:2;stroke-miterlimit:10;}
	.st2{fill:#CFA000;}
	.st3{fill:#242424;}
</style>
<path class="st0" d="M2.3,46.5L24,6.1c1.7-3.3,5.1-5.2,8.7-5.1l42.1,0.1c3.6,0,6.9,2.1,8.6,5.2L104.8,47c1.6,2.9,1.6,6.5,0,9.4
	l-22,40.4c-1.7,3.3-5.1,5.2-8.7,5.1l-42.1,0c-3.6,0-6.9-2.1-8.6-5.2L2.2,55.9C0.6,53,0.6,49.4,2.3,46.5z"/>
<g>
	<path class="st1" d="M53.6,26.8c-13.6,0-24.5,10.9-24.5,24.3c0,13.5,10.9,24.4,24.4,24.4C67.1,75.5,78,64.6,78,51.1
		C78,37.7,67.2,26.8,53.6,26.8z"/>
	<path class="st2" d="M61.1,64.8H45.9v3h15.2V64.8z"/>
	<path class="st2" d="M32.6,50.2c0.5-3,1.5-5.9,3-8.6c1.5-2.7,3.5-5.1,6-6.9c2.5-1.8,5.5-3,8.5-3.6c3-0.7,6.3-0.5,9.4,0.4
		c3,1,5.9,2.7,8.1,4.9c2.3,2.2,4.1,4.9,5.3,7.9c1.2,3,1.6,6.4,1,9.7c-0.5,3.3-2,6.3-4,8.9l-2.7-2.2c1.8-2.1,3.1-4.6,3.7-7.3
		s0.4-5.5-0.5-8.2c-1.8-5.4-6.1-10-11.5-12c-2.7-1-5.7-1.3-8.6-0.8c-2.9,0.4-5.7,1.4-8.2,3s-4.5,3.9-6.2,6.4
		C34.6,44.5,33.4,47.3,32.6,50.2z"/>
	<path class="st2" d="M53.6,56.7c1.9,0,3.5-1.6,3.5-3.5s-1.5-3.5-3.5-3.5s-3.5,1.6-3.5,3.5S51.6,56.7,53.6,56.7z"/>
	<path class="st3" d="M65,33.7l-2.9,4l3.3,2.4l2.9-4L65,33.7z"/>
	<path class="st2" d="M52.4,51l14.7-16.7L55.6,53.5L52.4,51z"/>
</g>
</svg>
